<svg width="200" height="60" viewBox="0 0 200 60" fill="none" xmlns="http://www.w3.org/2000/svg">
  <!-- CDPI Logo with pharmaceutical theme -->
  <rect width="200" height="60" fill="#0066CC"/>
  
  <!-- DNA Helix Symbol -->
  <g transform="translate(15, 15)">
    <path d="M5 5 Q10 15 15 25 Q20 15 25 5" stroke="#ffffff" stroke-width="2" fill="none"/>
    <path d="M5 25 Q10 15 15 5 Q20 15 25 25" stroke="#ffffff" stroke-width="2" fill="none"/>
    <circle cx="8" cy="12" r="1.5" fill="#ffffff"/>
    <circle cx="17" cy="18" r="1.5" fill="#ffffff"/>
    <circle cx="12" cy="8" r="1.5" fill="#ffffff"/>
    <circle cx="22" cy="22" r="1.5" fill="#ffffff"/>
  </g>
  
  <!-- Text -->
  <text x="55" y="25" font-family="Arial, sans-serif" font-size="20" font-weight="bold" fill="#ffffff">CDPI</text>
  <text x="55" y="42" font-family="Arial, sans-serif" font-size="12" fill="#ffffff">PHARMA</text>
  <text x="55" y="52" font-family="Arial, sans-serif" font-size="8" fill="#00AAFF">PASS</text>
  
  <!-- Molecular structure accent -->
  <g transform="translate(140, 15)">
    <circle cx="10" cy="10" r="3" fill="#00AAFF"/>
    <circle cx="20" cy="5" r="2" fill="#ffffff"/>
    <circle cx="25" cy="15" r="2" fill="#ffffff"/>
    <line x1="13" y1="10" x2="18" y2="7" stroke="#ffffff" stroke-width="1"/>
    <line x1="13" y1="12" x2="22" y2="13" stroke="#ffffff" stroke-width="1"/>
  </g>
</svg>