<svg width="800" height="400" viewBox="0 0 800 400" fill="none" xmlns="http://www.w3.org/2000/svg">
  <!-- Background gradient -->
  <defs>
    <linearGradient id="heroGrad" x1="0%" y1="0%" x2="100%" y2="100%">
      <stop offset="0%" style="stop-color:#0066CC;stop-opacity:1" />
      <stop offset="50%" style="stop-color:#0088FF;stop-opacity:1" />
      <stop offset="100%" style="stop-color:#00AAFF;stop-opacity:1" />
    </linearGradient>
    <linearGradient id="screenGrad" x1="0%" y1="0%" x2="100%" y2="100%">
      <stop offset="0%" style="stop-color:#ffffff;stop-opacity:0.9" />
      <stop offset="100%" style="stop-color:#f8f9fa;stop-opacity:0.9" />
    </linearGradient>
  </defs>
  
  <rect width="800" height="400" fill="url(#heroGrad)"/>
  
  <!-- Conference venue background -->
  <rect x="50" y="280" width="700" height="120" fill="#003366" opacity="0.3"/>
  
  <!-- Stage/presentation area -->
  <rect x="100" y="200" width="600" height="180" fill="#ffffff" opacity="0.1" rx="10"/>
  
  <!-- Large screen/presentation -->
  <rect x="250" y="80" width="300" height="180" fill="url(#screenGrad)" rx="15"/>
  <rect x="260" y="90" width="280" height="160" fill="#f8f9fa" rx="8"/>
  
  <!-- Screen content - pharmaceutical molecules -->
  <g transform="translate(300, 120)">
    <!-- DNA structure on screen -->
    <path d="M20 20 Q40 40 60 60 Q80 40 100 20" stroke="#0066CC" stroke-width="3" fill="none"/>
    <path d="M20 60 Q40 40 60 20 Q80 40 100 60" stroke="#0066CC" stroke-width="3" fill="none"/>
    
    <!-- Molecular bonds -->
    <circle cx="30" cy="35" r="4" fill="#00AAFF"/>
    <circle cx="50" cy="25" r="4" fill="#0066CC"/>
    <circle cx="70" cy="45" r="4" fill="#00AAFF"/>
    <circle cx="90" cy="35" r="4" fill="#0066CC"/>
    
    <!-- Chart/graph elements -->
    <rect x="120" y="30" width="80" height="40" fill="none" stroke="#0066CC" stroke-width="2"/>
    <polyline points="125,60 135,50 145,40 155,30 165,35 175,25 185,30 195,20" fill="none" stroke="#00AAFF" stroke-width="2"/>
  </g>
  
  <!-- Audience silhouettes -->
  <g fill="#003366" opacity="0.6">
    <!-- Row 1 -->
    <ellipse cx="150" cy="300" rx="8" ry="12"/>
    <ellipse cx="170" cy="300" rx="8" ry="12"/>
    <ellipse cx="190" cy="300" rx="8" ry="12"/>
    <ellipse cx="220" cy="300" rx="8" ry="12"/>
    <ellipse cx="240" cy="300" rx="8" ry="12"/>
    <ellipse cx="260" cy="300" rx="8" ry="12"/>
    <ellipse cx="290" cy="300" rx="8" ry="12"/>
    <ellipse cx="310" cy="300" rx="8" ry="12"/>
    <ellipse cx="330" cy="300" rx="8" ry="12"/>
    <ellipse cx="360" cy="300" rx="8" ry="12"/>
    <ellipse cx="380" cy="300" rx="8" ry="12"/>
    <ellipse cx="400" cy="300" rx="8" ry="12"/>
    <ellipse cx="430" cy="300" rx="8" ry="12"/>
    <ellipse cx="450" cy="300" rx="8" ry="12"/>
    <ellipse cx="470" cy="300" rx="8" ry="12"/>
    <ellipse cx="500" cy="300" rx="8" ry="12"/>
    <ellipse cx="520" cy="300" rx="8" ry="12"/>
    <ellipse cx="540" cy="300" rx="8" ry="12"/>
    <ellipse cx="570" cy="300" rx="8" ry="12"/>
    <ellipse cx="590" cy="300" rx="8" ry="12"/>
    <ellipse cx="610" cy="300" rx="8" ry="12"/>
    <ellipse cx="640" cy="300" rx="8" ry="12"/>
    <ellipse cx="660" cy="300" rx="8" ry="12"/>
    
    <!-- Row 2 -->
    <ellipse cx="160" cy="320" rx="8" ry="12"/>
    <ellipse cx="180" cy="320" rx="8" ry="12"/>
    <ellipse cx="200" cy="320" rx="8" ry="12"/>
    <ellipse cx="230" cy="320" rx="8" ry="12"/>
    <ellipse cx="250" cy="320" rx="8" ry="12"/>
    <ellipse cx="270" cy="320" rx="8" ry="12"/>
    <ellipse cx="300" cy="320" rx="8" ry="12"/>
    <ellipse cx="320" cy="320" rx="8" ry="12"/>
    <ellipse cx="340" cy="320" rx="8" ry="12"/>
    <ellipse cx="370" cy="320" rx="8" ry="12"/>
    <ellipse cx="390" cy="320" rx="8" ry="12"/>
    <ellipse cx="410" cy="320" rx="8" ry="12"/>
    <ellipse cx="440" cy="320" rx="8" ry="12"/>
    <ellipse cx="460" cy="320" rx="8" ry="12"/>
    <ellipse cx="480" cy="320" rx="8" ry="12"/>
    <ellipse cx="510" cy="320" rx="8" ry="12"/>
    <ellipse cx="530" cy="320" rx="8" ry="12"/>
    <ellipse cx="550" cy="320" rx="8" ry="12"/>
    <ellipse cx="580" cy="320" rx="8" ry="12"/>
    <ellipse cx="600" cy="320" rx="8" ry="12"/>
    <ellipse cx="620" cy="320" rx="8" ry="12"/>
    <ellipse cx="650" cy="320" rx="8" ry="12"/>
  </g>
  
  <!-- Presenter silhouette -->
  <ellipse cx="200" cy="260" rx="12" ry="20" fill="#ffffff" opacity="0.8"/>
  
  <!-- Lighting effects -->
  <circle cx="400" cy="50" r="60" fill="#ffffff" opacity="0.1"/>
  <circle cx="200" cy="260" r="40" fill="#ffffff" opacity="0.05"/>
  
  <!-- Pharmaceutical equipment icons -->
  <g transform="translate(50, 50)" fill="#ffffff" opacity="0.3">
    <!-- Microscope -->
    <rect x="5" y="20" width="3" height="15"/>
    <circle cx="6.5" cy="15" r="5"/>
    <rect x="2" y="35" width="9" height="3"/>
    
    <!-- Beaker -->
    <path d="M20 25 L25 35 L15 35 Z" fill="#ffffff"/>
    <rect x="18" y="15" width="4" height="10"/>
    
    <!-- Pills -->
    <circle cx="35" cy="25" r="3"/>
    <circle cx="42" cy="25" r="3"/>
    <circle cx="49" cy="25" r="3"/>
  </g>
</svg>